<svg xmlns="http://www.w3.org/2000/svg" width="102" height="102" viewBox="0 0 102 102">
  <g id="PIF-logo-2" transform="translate(-19.64 -12.19)">
    <g id="Group_5" data-name="Group 5" transform="translate(37.903 28.61)">
      <path id="XMLID_120_" d="M122.563,200.43a4.444,4.444,0,0,0-1.6.53,1.6,1.6,0,0,1,.87-.642,9.858,9.858,0,0,1-3.554-3.208c-.5-.674-.745-.925-1.259-1.573l.475-.4a1.694,1.694,0,0,0,.677.116,1.4,1.4,0,1,0-.2-2.781,1.516,1.516,0,0,0-.774.279,17.694,17.694,0,0,0-1.406,1.284q-2.114-2.529-4.309-4.742c7.15-6.409,17.412-12.984,29.841-13.408-11.893-1.776-22.729,2.283-32.4,10.981-9.671-8.7-20.507-12.756-32.4-10.981,12.426.424,22.691,7,29.841,13.408q-2.2,2.211-4.309,4.742a17.09,17.09,0,0,0-1.4-1.284,1.566,1.566,0,0,0-.774-.279,1.4,1.4,0,1,0-.2,2.781,1.7,1.7,0,0,0,.677-.116l.475.4c-.514.649-.751.9-1.259,1.573a9.888,9.888,0,0,1-3.554,3.208,1.6,1.6,0,0,1,.87.642,4.372,4.372,0,0,0-1.6-.53c-1.753-.26-3.908.732-3.5,3.1.392,2.264,4.569,4.026,7.818-.523,1.329-1.865,2.636-3.814,2.636-3.814.408-.536.623-.755,1.185-1.442a14.435,14.435,0,0,0,1.207,1.024,1.56,1.56,0,0,0,.78.257,1.4,1.4,0,1,0,.116-2.787,1.732,1.732,0,0,0-.671.135s-.074-.061-.17-.135c1.188-1.381,2.607-2.931,4.241-4.546,1.634,1.615,3.053,3.166,4.241,4.546l-.17.135a1.608,1.608,0,0,0-.671-.135,1.4,1.4,0,1,0,.116,2.787,1.544,1.544,0,0,0,.78-.257,13.914,13.914,0,0,0,1.21-1.024c.559.69.777.905,1.185,1.442,0,0,1.3,1.949,2.633,3.814,3.249,4.553,7.43,2.787,7.818.523.408-2.363-1.747-3.355-3.5-3.1" transform="translate(-76.52 -139.467)" fill="#c29a5b"/>
      <path id="XMLID_119_" d="M165.14,187.758a15.385,15.385,0,0,1,2.992,1.817c1.637.966,3.416-1.429,5.378-2.1-2.183-.231-2.687.655-4.078.706-1.307.042-1.679-.658-4.293-.427" transform="translate(-136.686 -147.591)" fill="#c29a5b"/>
      <path id="XMLID_118_" d="M144.329,99.223c-1.782.164-3.567.45-5.349.61.125,1.1,3.439-.363,5.157,2.209,1.432-.79,5.751-1.432,5.892-.382-1.615-.045-3.124-.119-4.27.546,1,.01,1.249.925,1.7.6,1.153-.819,1.618.241,3.214.308.411,0,.9-.36,1.23-.337.719.045,1.159.5,1.91.148a7.275,7.275,0,0,1,4.463-.353,4.069,4.069,0,0,0-2.058-1.14c.022-.427,1.7-.417,2.665-.112,1.811.382.186-1.076,3.6-1.679-.462-1.41-3.089-.347-4.036-.5-3.07-.517-2.578.78-4.79-.218l-.96-20.411s.173-.893.5.035a13.2,13.2,0,0,0,1.724,3.48c.616.655.674.507.674.507a6.282,6.282,0,0,0,.424-1.262,8.332,8.332,0,0,0,.886.912,4.411,4.411,0,0,0,.212-1.776,8.553,8.553,0,0,0-.273-1.615,4.783,4.783,0,0,1,1.143,1.535,10.04,10.04,0,0,1,.607,1.493,4.136,4.136,0,0,0,.873-3.827,4.028,4.028,0,0,0-2.119-3.169s1.194-.311,2.3,1.477,1.541,2.334,1.541,2.334a3.859,3.859,0,0,0,.3-3.2,5,5,0,0,0-2.18-2.106s.745-.321,2.276.684a6.763,6.763,0,0,1,1.673,1.275s.5-2.655-.594-3.577-3.975-1.04-4.45-1.9c0,0,3.856.356,4.733,1.191a6,6,0,0,0-3.365-3.1,7.543,7.543,0,0,0-3.737-.555c.029-.035.437-.681,2.662-.167a16.141,16.141,0,0,0,4,.43s-2.755-2.334-5.7-2.148-4.046,1.628-4.046,1.628a.7.7,0,0,1-.347-1.095,2.236,2.236,0,0,0-.231-2.665,6.007,6.007,0,0,0-2.273,2.331c-.437,1.243.713,1.792-.183,2.931a4.317,4.317,0,0,1-.738-1.467c-.363-1.066-2.167-2.411-6.916-.79a3.371,3.371,0,0,1,2.344.851c.986.947.893,1.284.893,1.284a3.445,3.445,0,0,0-2.591-.234c-1.3.478-1.532,1.117-1.532,1.117a6.25,6.25,0,0,1,2.292.109c.735.3.735.726.735.726a3.6,3.6,0,0,0-3.285.421,3.35,3.35,0,0,0-1.56,2.758,4.421,4.421,0,0,0,2.048-.337c1.082-.456,1.535-.832,2.257-.578a5.5,5.5,0,0,0-1.888.966,2.15,2.15,0,0,0-.755,1.381,5.665,5.665,0,0,0,1.609-.681c.857-.527,1.618-.979,2.353-.491a4.638,4.638,0,0,0-2.408,1.715,5.158,5.158,0,0,0-.552,5.844,13.64,13.64,0,0,0,2.02-2.5,15.317,15.317,0,0,1,.925-1.551,6.055,6.055,0,0,0,.189,1.991,6.6,6.6,0,0,0,.738-1.037,2.466,2.466,0,0,1,1-1,6.858,6.858,0,0,0-.6,3.281c-.045,2.44.533,2.842.533,2.842a17.494,17.494,0,0,0,2.09-3.066c.694-1.313,1.166-2.5,1.166-2.5L149.405,99.2c-1.39.751-3.689-.1-5.076.022" transform="translate(-118.925 -63.33)" fill="#c29a5b"/>
    </g>
    <g id="Group_6" data-name="Group 6" transform="translate(19.64 12.19)">
      <path id="XMLID_115_" d="M70.64,112.572A49.382,49.382,0,1,1,120.022,63.19,49.477,49.477,0,0,1,70.64,112.572m0-100.382a51,51,0,1,0,51,51,51.1,51.1,0,0,0-51-51" transform="translate(-19.64 -12.19)" fill="#00853e"/>
      <path id="XMLID_112_" d="M62.688,92.221A36.081,36.081,0,1,1,98.768,128.3,36.15,36.15,0,0,1,62.688,92.221m73.78,0a37.7,37.7,0,1,0-37.7,37.7,37.773,37.773,0,0,0,37.7-37.7" transform="translate(-47.768 -40.929)" fill="#00853e"/>
      <path id="XMLID_111_" d="M123.86,42.626a2.736,2.736,0,0,0,.061-.851,4.021,4.021,0,0,0-.372-1.339q-.472-1.05-1.365-2.6l-.379-.623-.225-.372-.135.95a3.181,3.181,0,0,0-.035.716Z" transform="translate(-88.728 -28.925)" fill="#00853e"/>
      <path id="XMLID_110_" d="M128.569,46.7c.035.116.453.193,1.243.238a5.445,5.445,0,0,0,1.56-.051c.485-.157.822-.633,1.011-1.432a4.867,4.867,0,0,0,.122-1.634,3.773,3.773,0,0,0-.141-.722,2.739,2.739,0,0,0-1-1.365,2.407,2.407,0,0,0-1-.459l-.022,1.3a5.945,5.945,0,0,1,.832.35c.43.225.665.4.71.539q.173.535-.533,1.679a5.264,5.264,0,0,1-.658.921,1.512,1.512,0,0,1-.594.424,2.752,2.752,0,0,1-.655.083l-.18-.01-.218.016-.411.013a.083.083,0,0,0-.071.112" transform="translate(-93.591 -31.933)" fill="#00853e"/>
      <path id="XMLID_108_" d="M72.309,84.921l.006-.016-.026-.055Z" transform="translate(-55.385 -61.521)" fill="#00853e"/>
      <g id="XMLID_85_" transform="translate(21.47 5.063)">
        <path id="XMLID_107_" d="M104.877,46.488a.725.725,0,0,1,.083-.305l.09-.3.5,0a3.015,3.015,0,0,0,.507-.026l.109-.36.074-.318.045-.238-1.021.016a.511.511,0,0,0-.051.122c-.019.051-.045.128-.074.231-.061.183-.1.283-.128.3a1.5,1.5,0,0,1-.437.045,1.923,1.923,0,0,1-.482-.051l-.087.289a2.21,2.21,0,0,0-.09.308l-.071.305a1.673,1.673,0,0,0,.475.026,2,2,0,0,0,.552-.048" transform="translate(-98.283 -39.495)" fill="#00853e"/>
        <path id="XMLID_106_" d="M86.812,60.064l3.5,3.291a2.788,2.788,0,0,0-.18-.835,4.1,4.1,0,0,0-.729-1.185q-.746-.881-2.036-2.126l-.539-.494-.318-.3.132.95a2.966,2.966,0,0,0,.17.694" transform="translate(-86.51 -48.64)" fill="#00853e"/>
        <path id="XMLID_105_" d="M102.814,51.863a1.1,1.1,0,0,0,.816.549,1.737,1.737,0,0,0,.546.006l.138-.029a.376.376,0,0,0,.116-.035l.25-.119,3.962-2.177a2.942,2.942,0,0,0-.087-.88l-.051-.43a.374.374,0,0,0-.022-.138l-.051-.093-.048-.183a1.029,1.029,0,0,0-.1-.225l-.039-.1-.051-.087-.067-.128a1.142,1.142,0,0,0-.225-.286,2.474,2.474,0,0,0-.376-.3l-.34-.186-.27-.141-.019,1.259.279.135a.8.8,0,0,1,.34.2.713.713,0,0,1,.212.189l.093.093a.905.905,0,0,1,.051.093.24.24,0,0,1,.029.209l-3.413,1.875a1.411,1.411,0,0,1-1.252.116l-.138-.064-.077-.071-.087-.116-.087-.154a5.326,5.326,0,0,1-.3-.719l-.051-.161-.071-.141-.1-.087c-.122.067-.116.389.019.96a5.361,5.361,0,0,0,.469,1.358" transform="translate(-97.189 -40.812)" fill="#00853e"/>
        <path id="XMLID_102_" d="M145.143,32.293a.854.854,0,0,1,.34-.241.626.626,0,0,1,.212-.08l.27-.055c.215-.039.4.071.555.327a.886.886,0,0,1,.138.26l.061.173.039.212-.1.035-.106.013-.135-.006-.132-.026-.128-.032-.469-.167-.189-.058-.241-.093-.241-.109Zm-2.354,2.357h0l.9-.161a.578.578,0,0,0,.514-.466.769.769,0,0,1,.177-.389l1.785.613c.289.109.514.186.681.231a1.043,1.043,0,0,0,.324.061c.074-.016.122-.135.144-.36.039-.225.1-.344.186-.36l.732-.128v0l2.17-.039a1.649,1.649,0,0,0,.228-.389l.093-.173.109-.215a1.723,1.723,0,0,0,.324.584.893.893,0,0,0,.536.17l.79-.013,0-.048,2,.035.466-.8a1.208,1.208,0,0,0,.347.613.825.825,0,0,0,.555.212l.5.01-.006.045,1.358.238.148-.01.138-.045a1.158,1.158,0,0,0,.311-.2l.074-.064.019.074.087.27a.548.548,0,0,0,.27.167,4.351,4.351,0,0,0,.665.154l.148.026.286.051.308.029.485.016.183-.157.071-.048.032-.013a.343.343,0,0,1,.09.154l.022.112.035.074,1.628.286.106-.2.167-.228.189-.263.093-.164a3.48,3.48,0,0,0,.18-.668l.25-1.413-.292.212c-.109.08-.225.177-.353.289a2.383,2.383,0,0,0-.385.385l0,.2,0,.273,0,.138.019.193-1.037-.212a.349.349,0,0,1,0-.132,2.4,2.4,0,0,1,.122-.385l.141-.324.327-.694-.581.392a4.6,4.6,0,0,0-.433.353.763.763,0,0,0-.119.164,1.26,1.26,0,0,0-.09.324l-.035.186-.347.019-.382-.048-.154-.026-.376-.087-.3-.1c-.183-.093-.27-.17-.263-.215l.119-.228a.915.915,0,0,0,.132-.186l.116-.215a3.529,3.529,0,0,0,.321-.793c-.263.183-.482.347-.668.5a1.692,1.692,0,0,0-.417.35,1.752,1.752,0,0,1-.093.363c-.116.173-.238.25-.363.228l-1.727-.3-.109.613.01-.677-.161,0a.764.764,0,0,1-.514-.209.577.577,0,0,1-.177-.433v-.067l.048-.238.029-.09,0-.093.022-.321.026-.44,0-.157-.755.857-.042.665,0,.167-.035.148-.058.148-.019.042-2.511-.042,0,.051-.254,0a.653.653,0,0,1-.43-.151.522.522,0,0,1-.148-.315l0-.083.048-.311.016-.254.019-.112,0-.148,0-.2-.016-.231-.013-.125-.761.96-.022.581-.019.25-.045.164-2.485.042.006.286-.051-.292-.321.058c-.141.022-.337-.112-.591-.4a4.117,4.117,0,0,1-.527-.677l-.064-.128-.032-.135-.039-.231a.291.291,0,0,0-.093-.189.566.566,0,0,0-.289-.01,2.24,2.24,0,0,0-.889.533,3.059,3.059,0,0,0-.774.88,5.158,5.158,0,0,0-.247.748.391.391,0,0,1-.305.3l-1.609.283V33.5l-.337.09-.2.035c-.083,0-.135-.013-.154-.035l-.09-.1a.126.126,0,0,1-.032-.067,3.645,3.645,0,0,1-.238-.539l-.575-1.454q-.684-1.724-.883-2.463l-.52,1.1,1.849,5.009Z" transform="translate(-122.391 -28.646)" fill="#00853e"/>
        <path id="XMLID_99_" d="M282.411,91.71l.9.594a1.6,1.6,0,0,1,.488.6l.029.106.022.08.019.151a2.092,2.092,0,0,1-.039.472c-.071.363-.164.572-.283.626a.539.539,0,0,1-.173-.01.77.77,0,0,1-.353-.4l-1.259-2.675ZM273.55,81.044a.442.442,0,0,0-.1.18.322.322,0,0,0,.067.183l1.743,1.991c.051.077.2.067.459-.022a1.261,1.261,0,0,1,.559-.071l.061.022-.026.061-.058.119a.231.231,0,0,1-.051.1l-.039.064-.064.1-.09.144c-.08.154-.1.241-.058.27l.449.514-.016.01,1.117,1.708.886-.058-.18.215-.093.173a.821.821,0,0,0,.083.729l.376.568.241-.154.507,1.082.835.087-.453.34c-.074.1-.1.167-.083.205l2.5,5.311a.537.537,0,0,0,.388.209,4.443,4.443,0,0,0,.78.048l.665-.019.552-.026c.254-.119.456-.45.607-1a1.832,1.832,0,0,0,.039-1.22A3.241,3.241,0,0,0,284.042,92l-1.551-.9-.7-.44a1.757,1.757,0,0,1-.4-.324.98.98,0,0,1-.132-.138l-.074-.157-.08-.173a.416.416,0,0,1-.023-.286.5.5,0,0,1,.238-.228l1.358-.726-.742-.18a2.684,2.684,0,0,0-.6-.109l-.719.511-.767-1.628-.273.125-.135-.209a.624.624,0,0,1-.093-.44.471.471,0,0,1,.2-.3l.064-.035.292-.125.222-.122.109-.042.125-.08.17-.1.189-.135.1-.077c-.051-.013-.266-.039-.639-.074l-.443-.042-.145-.013-.5.292-.225.116-.164.048-1.281-1.959-.035.022.051-.048-.167-.189c-.077-.09-.022-.27.167-.539l.446-.626.893-1.284.324-.466-1.3.347-.7,1.069a2.331,2.331,0,0,1-.456.546l-.071.055-.064.035-1.689-1.926a.289.289,0,0,1-.08-.289.848.848,0,0,1,.241-.292c.013,0,.039-.019.077-.051l.08-.071.067-.042.055-.048.112-.09.048-.058.019-.048c-.032-.035-.135-.019-.311.055l-.141.048-.125.071a5.329,5.329,0,0,0-.793.446Z" transform="translate(-213.428 -63.314)" fill="#00853e"/>
        <path id="XMLID_98_" d="M238.14,46.206a4.132,4.132,0,0,0,.816-1.13c.35-.684.745-1.576,1.178-2.687l.25-.684.148-.4-.828.491a3.181,3.181,0,0,0-.584.424l-1.689,4.479a2.73,2.73,0,0,0,.71-.488" transform="translate(-188.973 -37.017)" fill="#00853e"/>
        <path id="XMLID_97_" d="M297.83,91.108c.315.116.5.154.552.122a1.924,1.924,0,0,0,.045-.212c.019-.093.039-.222.064-.385l.077-.562a1.591,1.591,0,0,0-.581-.2,1.9,1.9,0,0,0-.572-.1,1.542,1.542,0,0,0-.1.533,2.4,2.4,0,0,0,0,.565,1.973,1.973,0,0,0,.517.231" transform="translate(-229.62 -69.926)" fill="#00853e"/>
        <path id="XMLID_94_" d="M250.9,61.1l-.122-.087-.135-.093-.125-.125-.077-.125-.045-.122-.048-.189a.459.459,0,0,1-.022-.148,2.176,2.176,0,0,1,.395-.167.465.465,0,0,1,.356.035c.055.039.1.18.128.421a1.281,1.281,0,0,1,.016.369,1.122,1.122,0,0,1-.048.327l-.093-.01-.071-.019Zm-5.279.671a2.232,2.232,0,0,0,.966,1.243c.035.022.077.055.135.09s.145.083.26.144l.267.135.3.128a7.855,7.855,0,0,0,1.191.321,4.347,4.347,0,0,0,1.355.112,2.806,2.806,0,0,0,.568-.389l.3-.231.376-.308.045-.045.093-.132.25-.453.148-.324.132-.331a4.482,4.482,0,0,0,.308-1.573,1.175,1.175,0,0,0-.1-.469.657.657,0,0,0-.228-.283c-.308-.215-.8-.167-1.471.157a3.37,3.37,0,0,0-1.21.873.728.728,0,0,0-.058.7,1.279,1.279,0,0,0,.475.636,1.4,1.4,0,0,0,.909.286.959.959,0,0,0,.34-.09.458.458,0,0,1-.016.135l-.026.128a.633.633,0,0,1-.08.27l-.071.193-.061.1-.161.334a3.151,3.151,0,0,1-1.432-.2,6.237,6.237,0,0,1-1.605-.793,2.067,2.067,0,0,1-.694-.8,1.156,1.156,0,0,1,.119-1.23,1.7,1.7,0,0,1,.273-.292l.456-.344.421-.308a.865.865,0,0,0,.183-.157c.026-.058.022-.093-.006-.116-.116-.08-.462.074-1.04.459a4.965,4.965,0,0,0-.774.581,4.752,4.752,0,0,0-.533.6,1.511,1.511,0,0,0-.3,1.246" transform="translate(-194.513 -48.943)" fill="#00853e"/>
        <path id="XMLID_91_" d="M221.883,36.395l.3-.116.421-.212.029.189.032.234.016.244,0,.164a2.889,2.889,0,0,1-.44-.128l-.074-.029-.379-.167-.154-.1Zm.915,1.84.212-.411a3.614,3.614,0,0,0,.25-.53c.006-.016.022-.058.048-.128l.077-.254.022-.209,0-.273-.039-.629a.911.911,0,0,0,.3-.2l.433-.4a1.912,1.912,0,0,0,.353-.43.75.75,0,0,0,.128-.177l.071-.122.077-.125.074-.189.1.116a.162.162,0,0,0,.064.067l.148.064,1.015-.738c.006-.051-.083-.2-.273-.433l-.292-.363a.885.885,0,0,1-.209-.427.992.992,0,0,1,.087-.4l-.658.466-.5.376-.17.135.1.344a1.318,1.318,0,0,1-.093.5L224.06,34l-.1.212-.138.241-.135.212a4.394,4.394,0,0,1-.417.488l-.228-.925-.234-.722a4.97,4.97,0,0,0-.238-.555l-.2-.392-.128-.241A4.05,4.05,0,0,0,222,31.9a1.878,1.878,0,0,0-.735-.787l-.254.247-.228.254a2.317,2.317,0,0,0-.379.568,1.12,1.12,0,0,0-.087.462.55.55,0,0,0,.212.392,4.843,4.843,0,0,1,.594.71l.1.128.164.26c.051.019.116-.019.189-.119s.122-.144.145-.135a.918.918,0,0,1,.225.305l.145.257a1.482,1.482,0,0,1,.087.212l.148.363.1.308.083.286.006.048a1.542,1.542,0,0,1-.36.164l-.254.09-.222.058-.507.125a.741.741,0,0,1-.43,0,.458.458,0,0,1-.34-.372l-.045-.209-.022-.064q-.077.01-.2.241a1.241,1.241,0,0,0-.148.266l-.138.337c-.035.093-.064.189-.093.3a1.913,1.913,0,0,0-.058.263c.022.157.071.25.135.273Z" transform="translate(-176.929 -30.099)" fill="#00853e"/>
        <path id="XMLID_90_" d="M262.927,53.642l.077.183.077.128a.626.626,0,0,0,.167.2l.051-.01.273-.035.263-.035.083-.016.138.292a5.494,5.494,0,0,0,.35.642,1.8,1.8,0,0,0,.382-.055,5.354,5.354,0,0,0,.613-.148l-.494-.979-.279.032-.254.045a.284.284,0,0,1-.161.01l-.067-.019a1.306,1.306,0,0,1-.228-.395,4.367,4.367,0,0,1-.186-.488l-.308.058-.674.157.058.186Z" transform="translate(-206.163 -44.953)" fill="#00853e"/>
        <path id="XMLID_87_" d="M260.921,71.652a.553.553,0,0,1,.421-.1.681.681,0,0,1,.27.042c.077.035.122.058.144.071a.534.534,0,0,1,.077.064.589.589,0,0,1,.173.443.677.677,0,0,1-.189.5l-.045.045-.3-.116-.093-.032-.045-.039-.083-.077-.17-.189-.145-.241c-.051-.2-.058-.324-.013-.376m-.844.3a1.361,1.361,0,0,0-.173.289.748.748,0,0,0,.238.832,1.181,1.181,0,0,0,.848.379l.119-.016.109-.029.154-.055.238-.1.276-.144a.863.863,0,0,1-.106.206l-.077.157-.029.032-.032.035-.048.048a2.18,2.18,0,0,1-1.58.459,6.908,6.908,0,0,1-1.04-.067,5.026,5.026,0,0,1-.989-.254l-.135-.039-.112-.074a.774.774,0,0,1-.231-.173l-.189-.209-.167-.218-.27-.4-.116-.157c-.106-.045-.173-.051-.209-.016-.045.1.112.443.472,1.015.032.064.058.109.071.132s.042.067.083.125l.128.2c.023.051.042.08.051.1a.485.485,0,0,0,.051.064l.119.161a3.262,3.262,0,0,0,.449.5,2.131,2.131,0,0,0,2.26.17,5.416,5.416,0,0,0,2.138-1.381,2.955,2.955,0,0,0,.729-1.384c.128-.539.112-.889-.058-1.043-.244-.228-.706-.254-1.387-.083a2.556,2.556,0,0,0-1.239.546Z" transform="translate(-201.952 -57.11)" fill="#00853e"/>
        <path id="XMLID_86_" d="M169.529,29.151l.157-.189.151-.157.2-.183a2.084,2.084,0,0,1,.5.26l.446.263.125-.138.2-.238.241-.321-.832-.488-.212.212c-.2.2-.321.3-.369.3a1.947,1.947,0,0,1-.4-.18l-.231-.138-.206-.132-.09.087-.093.1-.128.154-.254.315a2.679,2.679,0,0,0,.35.241,2.511,2.511,0,0,0,.449.234" transform="translate(-142.331 -27.96)" fill="#00853e"/>
      </g>
      <path id="XMLID_84_" d="M170.76,25.2l.684.52.584-.552-.655-.549Z" transform="translate(-122.239 -20.629)" fill="#00853e"/>
      <g id="XMLID_70_" transform="translate(6.723 4.312)">
        <path id="XMLID_83_" d="M182.159,26.882l.148-.157.366-.321.5.3a3.432,3.432,0,0,0,.472.228l.09-.077.215-.2q.356-.371.424-.462l-.989-.549a1.957,1.957,0,0,0-.327.27c-.148.141-.241.209-.276.209l-.173-.067-.257-.132c-.263-.173-.408-.273-.443-.305l-.225.209-.209.2-.3.311a1.325,1.325,0,0,0,.424.3,2.237,2.237,0,0,0,.555.241" transform="translate(-136.036 -25.62)" fill="#00853e"/>
        <path id="XMLID_82_" d="M63.139,76.7l.96-1.313-.064-.045,1.621-1.984-.119-.376-.144-.337-.048-.1.119.016.212.026.205.048.324.051.735-.9,1.612-1.49.077-.1.087-.112c.045-.09.058-.141.032-.148a1.4,1.4,0,0,0-.08-.167l-.125-.189-.209-.337a3.833,3.833,0,0,0-.356-.511,1.128,1.128,0,0,1-.08-.09l-.687-.552-.193-.144-.141-.112-.2-.186-.266-.25-.022-.022-.135-1.422-.25.074-.366.083-.86.154a1.109,1.109,0,0,1-.311-.071l-.071-.022a.176.176,0,0,1-.067-.055l-.135-.135.042.321.109.472.2.735.539-.051.767.555.69.478a6.729,6.729,0,0,1,.925.764c.106.112.157.2.148.244l-1.432,1.326-.019-.016-.52.639-.058-.074L65.5,71.2l-.1-.305a1.423,1.423,0,0,0-.122-.292.525.525,0,0,0-.122-.148,1.1,1.1,0,0,0-.774-.138,1.581,1.581,0,0,0-1.1.588,2.368,2.368,0,0,0-.408.832l-.064.212-.032.132.022.051.222.581.241.539a.382.382,0,0,1,.083-.141l.125-.154a1.182,1.182,0,0,1,.616-.4,1.286,1.286,0,0,1,.536-.035l.112.029L62.972,74.7l.067.055-.193.263-.135.154a.249.249,0,0,1-.141.071l-.132-.019c-.01,0-.032-.01-.067-.032a3.521,3.521,0,0,1-.527-.273l-1.368-.774q-1.628-.91-2.248-1.358l.3,1.182Z" transform="translate(-52.563 -53.001)" fill="#00853e"/>
        <path id="XMLID_78_" d="M49.28,105.982l.212.035a.585.585,0,0,1,.161.039l.212.055.144.058.135.055-.067.167-.116.279-.164.305a.606.606,0,0,0-.128.189l-.116.183-.141.189-.128.164-.058-.694a1.1,1.1,0,0,0-.141-.514l-.238-.263a.759.759,0,0,1-.167-.327,1.691,1.691,0,0,1,.6.08m2.354-4-.013-.141-.01-.324a.742.742,0,0,1,.022-.228l.035-.135.08-.148c.116-.138.324-.173.629-.106.135.032.279.074.43.125Zm-4.03,3.5.257.36.193.019a.623.623,0,0,1,.218.022l.2,1.172a3.457,3.457,0,0,0,.154.687,2.3,2.3,0,0,0,.649.767,3.433,3.433,0,0,0,.732.546l.058-.138.116-.18.379-.549c.315-.443.482-.69.5-.745.055-.132-.032-.324-.257-.568a1.3,1.3,0,0,1-.353-.527l.01-.074.061.01a4.543,4.543,0,0,1,.62.135c.469.061.751-.029.851-.27l.283-.7-.032-.013.7-1.3a.362.362,0,0,0-.087-.4c-.27-.421-.392-.671-.36-.751l1.737-1.56a6.218,6.218,0,0,0-.722-1.207,2.4,2.4,0,0,0-.327-.141l-.27-.071-.183-.045-.941-.151-.456-.093a.205.205,0,0,0-.241.122,1.2,1.2,0,0,0-.112.4l-.061.581a2.72,2.72,0,0,0,.266,1.31l.3.433.488.681.032.032-.938,1.75.042.022L51,105.3l-.045.112a.322.322,0,0,1-.138.183l-.177.039a6.392,6.392,0,0,1-.86-.17l-1.573-.388-.546-.112-.552-.106.27.318Z" transform="translate(-45.013 -75.922)" fill="#00853e"/>
        <path id="XMLID_77_" d="M40.969,118.438a1.048,1.048,0,0,0,.209-.128l.183-.141.238-.2a1.43,1.43,0,0,0,.164-.193.731.731,0,0,1-.132-.283l-.051-.144-.064-.154a3.485,3.485,0,0,0,.421-.327,3.224,3.224,0,0,0,.311-.289l.045-.045a1.587,1.587,0,0,0-.135-.337l-.128-.263-.128-.25-.812.652.186.472a.316.316,0,0,1,.042.212,1.086,1.086,0,0,1-.311.292,4.54,4.54,0,0,1-.424.273l.112.25Z" transform="translate(-40.58 -86.764)" fill="#00853e"/>
        <path id="XMLID_74_" d="M305.069,173.768a4.443,4.443,0,0,1,.3-.533.779.779,0,0,1,.4.2c.173.144.263.263.263.347-.048.222-.241.389-.581.5a.725.725,0,0,1-.263.083c-.013,0-.1.01-.263.035l-.016-.067a3.5,3.5,0,0,1,.151-.565m-4.819,2a1.835,1.835,0,0,0,.694.266,3.8,3.8,0,0,0,.819.167l.083-.006.145-.132.215-.144c.026-.019.067-.045.119-.077a.912.912,0,0,1,.186-.09,3.843,3.843,0,0,1,1.024-.34,6.3,6.3,0,0,1,1.175-.1,4.576,4.576,0,0,0,2.065-.372c.472-.244.71-.533.71-.86s-.34-.729-1.021-1.175a3.415,3.415,0,0,0-1.792-.665l-.324.019a.929.929,0,0,0-.453.353,1.651,1.651,0,0,0-.408.938,2.257,2.257,0,0,0-.055.6l-.045.321-.019.106c-.424.067-.8.144-1.133.228l-.478.148-.437.157q-1.026.433-1.069.665" transform="translate(-216.876 -125.164)" fill="#00853e"/>
        <path id="XMLID_73_" d="M307.1,153.883a3.635,3.635,0,0,0-.719-.527l-.363-.186-.34.2-.665.4c-.177.087-.417.2-.722.321l-.986.379a7.877,7.877,0,0,1-1.74.389c-.681.08-1.021.186-1.021.321s.1.218.289.257a6.744,6.744,0,0,0,1.056.058h.979l.363-.035.421-.055.475-.119.414-.119.077.27a2.412,2.412,0,0,0,.527.722l-.077.132-.061.135-.1.263a1.434,1.434,0,0,0-.119.549.877.877,0,0,0,.042.257c.074.257.337.472.79.652a3.121,3.121,0,0,0,1.14.241l.186-.016.119-.039a.171.171,0,0,0,.055-.161.413.413,0,0,0-.209-.2l-.411-.2a.432.432,0,0,1-.151-.305.775.775,0,0,1,.148-.459.675.675,0,0,1,.25-.228l.173-.01h.167c.18,0,.27-.067.27-.2l-.713-.507a2.277,2.277,0,0,1-.607-.623.393.393,0,0,1-.048-.186c0-.225.193-.52.575-.889Z" transform="translate(-217.073 -112.217)" fill="#00853e"/>
        <path id="XMLID_72_" d="M303.039,142.221c-.408.077-.944.167-1.6.266-.35.08-.52.167-.52.254,0,.132.135.215.408.257a4.749,4.749,0,0,0,1.04.08l.446-.01h.241a8.81,8.81,0,0,0,1.316-.112,9.989,9.989,0,0,0,1.329-.292,6.469,6.469,0,0,0,1.583-.751c.379-.263.552-.427.527-.491a1.965,1.965,0,0,0-.687-.318c-.064-.022-.154-.058-.263-.1-.074-.022-.167-.051-.276-.087l-.209-.055-.161-.006-.835.491c-.177.1-.392.2-.649.321s-.539.228-.851.337a4.484,4.484,0,0,1-.841.212" transform="translate(-217.331 -103.859)" fill="#00853e"/>
        <path id="XMLID_71_" d="M306.864,191.828c-.074-.022-.167-.051-.276-.087l-.209-.055-.161-.006-.835.491c-.177.1-.392.2-.649.321s-.539.228-.851.337a4.865,4.865,0,0,1-.835.209c-.408.077-.944.17-1.6.266-.35.084-.52.167-.52.257,0,.128.135.215.408.254a4.842,4.842,0,0,0,1.04.077l.446-.006h.241a8.811,8.811,0,0,0,1.316-.112,10.1,10.1,0,0,0,1.329-.292,6.471,6.471,0,0,0,1.583-.751c.376-.263.552-.424.527-.491a2.034,2.034,0,0,0-.687-.318c-.071-.019-.157-.051-.27-.093" transform="translate(-217.337 -138.362)" fill="#00853e"/>
      </g>
      <path id="XMLID_69_" d="M40.956,146.843l.167-.97,0-.026-.681-1.419-.019-.039-1.069-.18.581,1.262-4.222-.716-.08-.013-.2,1.162,5.436.925Z" transform="translate(-30.367 -101.821)" fill="#00853e"/>
      <g id="XMLID_65_" transform="translate(4.568 46.364)">
        <path id="XMLID_66_" d="M37.009,158.048a1.02,1.02,0,0,1,.665-.215.7.7,0,0,1,.083,0,.907.907,0,0,1,.947.986.936.936,0,0,1-.318.687,1.094,1.094,0,0,1-.716.228.869.869,0,0,1-.093,0,.919.919,0,0,1-.658-.305,1.011,1.011,0,0,1-.222-.713.906.906,0,0,1,.311-.668m-.4,2.867.279.016c.1.006.189.006.283.006,1.506,0,2.37-.722,2.443-2.061a1.9,1.9,0,0,0-1.824-2.2c-.045,0-.087,0-.125,0a1.78,1.78,0,0,0-1.824,1.782,1.587,1.587,0,0,0,.437,1.275c-1.008-.119-1.5-.527-1.464-1.2a.762.762,0,0,1,.684-.822l.064-.01.061-1.1-.093.006a1.778,1.778,0,0,0-1.66,1.891c-.074,1.442.918,2.328,2.739,2.427" transform="translate(-33.868 -156.59)" fill="#00853e"/>
      </g>
      <path id="XMLID_64_" d="M39.487,177.129l.215-.013-.25-3.956-.979.061.157,2.492-4.607-1.422-.112-.032.074,1.156,0,.058,5.487,1.654Z" transform="translate(-29.328 -121.476)" fill="#00853e"/>
      <path id="XMLID_63_" d="M41.418,190.282l0-.026-1.121-1.108-.029-.029-1.069.189.97,1-4.3.751.2,1.162,5.516-.966Z" transform="translate(-30.659 -132.312)" fill="#00853e"/>
      <g id="XMLID_55_" transform="translate(7.41 65.558)">
        <path id="XMLID_60_" d="M48.159,218.139l.3.671c.283.629.2,1.1-.424,1.381l-.035.016a.925.925,0,0,1-1.336-.594l-.3-.671Zm.421,3.339.032-.016c1.239-.552,1.506-1.644.87-3.069l-.9-2.023-5.86,2.617.588,1.32,2.129-.954.334.745c.6,1.336,1.573,1.933,2.809,1.381" transform="translate(-42.72 -216.37)" fill="#00853e"/>
        <path id="XMLID_59_" d="M57.4,236.63l-2.344,1.442a.936.936,0,0,1-1.393-.292c-.292-.475-.167-.857.376-1.188l2.424-1.493-.681-1.1L53.2,235.586a1.531,1.531,0,0,0-.668,2.286,1.554,1.554,0,0,0,1.49.828l-.626.389.677,1.1,3.994-2.459Z" transform="translate(-49.196 -228.339)" fill="#00853e"/>
        <path id="XMLID_56_" d="M65.184,249.929l-.055.045c-.71.581-1.336.581-1.788.022s-.376-1.188.353-1.782l.058-.045c.732-.594,1.393-.533,1.824-.006.414.511.347,1.166-.392,1.766m.841,1.018a2.1,2.1,0,0,0,.572-3.1,1.742,1.742,0,0,0-1.6-.629l2.219-1.808-.822-1.008-5.285,4.306.822,1.008.575-.472a1.607,1.607,0,0,0,.292,1.7c.735.9,1.968,1.034,3.169.055Z" transform="translate(-55.205 -235.4)" fill="#00853e"/>
      </g>
      <rect id="XMLID_54_" width="6.816" height="1.291" transform="translate(17.379 83.595) rotate(-44.814)" fill="#00853e"/>
      <g id="XMLID_52_" transform="translate(23.191 80.77)">
        <path id="XMLID_53_" d="M92.049,263.986a.74.74,0,1,0,1.021-.042.706.706,0,0,0-1.021.042" transform="translate(-91.869 -263.748)" fill="#00853e"/>
      </g>
      <rect id="XMLID_51_" width="4.694" height="1.291" transform="matrix(0.665, -0.747, 0.747, 0.665, 19.433, 85.579)" fill="#00853e"/>
      <g id="XMLID_49_" transform="translate(22.243 84.426)">
        <path id="XMLID_50_" d="M92.88,275.645a2.329,2.329,0,0,0-3.4.533l-.042.058a2.253,2.253,0,0,0,.53,3.352A2.013,2.013,0,0,0,92.9,279.4l-.947-.7a.948.948,0,0,1-1.345.135c-.584-.43-.639-1.069-.08-1.83l.042-.058c.53-.722,1.188-.86,1.731-.462a.858.858,0,0,1,.292,1.2l.992.726a1.954,1.954,0,0,0-.7-2.771" transform="translate(-88.917 -275.136)" fill="#00853e"/>
      </g>
      <rect id="XMLID_48_" width="6.415" height="1.464" transform="matrix(0.468, -0.884, 0.884, 0.468, 28.402, 92.015)" fill="#00853e"/>
      <g id="XMLID_46_" transform="translate(31.302 89.189)">
        <path id="XMLID_47_" d="M121.554,290.936a1.626,1.626,0,0,0-1.734.212l.283-.687-1.2-.491-1.769,4.341,1.2.491,1.021-2.508a.929.929,0,0,1,1.3-.584c.53.215.649.594.408,1.185L120,295.486l1.2.491,1.127-2.768c.472-1.166.077-1.926-.78-2.273" transform="translate(-117.13 -289.97)" fill="#00853e"/>
      </g>
      <path id="XMLID_45_" d="M140.54,296.7l-1.949,2.947-.205-3.532-1.345-.363.43,4.977,1.413.382,2.87-4.084Z" transform="translate(-99.345 -204.705)" fill="#00853e"/>
      <g id="XMLID_33_" transform="translate(42.231 84.736)">
        <path id="XMLID_42_" d="M152.6,302.305a1.08,1.08,0,0,1,1.217-.883.959.959,0,0,1,.861,1.188Zm1.349-1.769a2.328,2.328,0,0,0-2.742,2.065l-.01.071a2.273,2.273,0,0,0,2.074,2.716c1.268.186,2.151-.254,2.45-1.236l-1.217-.177c-.135.379-.466.594-1.063.5a1.123,1.123,0,0,1-.976-1.384l3.346.491.051-.353a2.165,2.165,0,0,0-1.914-2.7" transform="translate(-151.168 -292.67)" fill="#00853e"/>
        <path id="XMLID_41_" d="M170.585,303.782c-.681-.119-.9-.241-.889-.539s.254-.475.677-.466c.449.016.661.2.719.584l1.191.035c-.087-1.079-.857-1.48-1.894-1.509-.96-.029-1.872.433-1.9,1.409-.022.915.45,1.288,1.689,1.512.671.119.944.257.938.581s-.25.5-.748.491c-.568-.016-.764-.263-.809-.687l-1.207-.035c.016,1.015.735,1.593,2,1.628,1.239.035,1.987-.475,2.016-1.49.026-1-.61-1.31-1.782-1.515" transform="translate(-162.833 -293.607)" fill="#00853e"/>
        <path id="XMLID_40_" d="M185.212,303.48c-.331.023-.53-.145-.555-.52l-.151-2.257.982-.064-.061-.922-.986.064-.067-1.011-1.291.087.067,1.008-.6.042.061.922.6-.039.161,2.373a1.338,1.338,0,0,0,1.612,1.374,2.381,2.381,0,0,0,.78-.177l-.067-1a1.186,1.186,0,0,1-.485.122" transform="translate(-172.474 -291.491)" fill="#00853e"/>
        <path id="XMLID_39_" d="M199.874,297.793a1.864,1.864,0,0,0-1.381,1.124,1.287,1.287,0,0,0-1.448-.53,1.593,1.593,0,0,0-1.236,1.1l-.148-.7-1.271.267.96,4.595,1.275-.267-.568-2.713a.874.874,0,0,1,.69-1.127c.446-.093.774.116.9.7l.588,2.8,1.265-.263-.568-2.716a.869.869,0,0,1,.69-1.124c.459-.1.777.112.9.7l.584,2.8,1.268-.263-.616-2.944c-.26-1.226-1.031-1.625-1.882-1.445" transform="translate(-180.512 -290.8)" fill="#00853e"/>
        <path id="XMLID_36_" d="M222.5,293.638a.96.96,0,0,1,1.332.613L221.87,295a1.074,1.074,0,0,1,.629-1.365m1.849,1.885c.064.4-.119.745-.681.96a1.122,1.122,0,0,1-1.528-.732l3.159-1.21-.128-.334a2.163,2.163,0,0,0-2.992-1.41,2.336,2.336,0,0,0-1.381,3.143l.026.067a2.282,2.282,0,0,0,3.143,1.352c1.2-.459,1.75-1.275,1.528-2.276Z" transform="translate(-198.315 -287.31)" fill="#00853e"/>
        <path id="XMLID_35_" d="M237.1,284.891a1.629,1.629,0,0,0-.941,1.474l-.353-.655-1.146.617,2.222,4.132,1.146-.616-1.284-2.386a.927.927,0,0,1,.376-1.371c.5-.273.87-.122,1.172.437l1.326,2.466,1.146-.616-1.416-2.633c-.591-1.108-1.435-1.288-2.248-.848" transform="translate(-207.852 -281.917)" fill="#00853e"/>
        <path id="XMLID_34_" d="M252.6,279.735a.483.483,0,0,1-.745-.167l-1.275-1.865.816-.559-.52-.761-.816.555-.572-.838-1.066.729.572.835-.5.337.52.764.5-.34,1.342,1.962a1.338,1.338,0,0,0,2.087.369,2.494,2.494,0,0,0,.581-.549l-.565-.832a1.163,1.163,0,0,1-.36.36" transform="translate(-217.194 -276.1)" fill="#00853e"/>
      </g>
      <path id="XMLID_32_" d="M265.342,261.626l-.745-.8-1.544,1.435-1.153-1.243,1.949-1.811-.774-.835-3.015,2.8,4.367,4.7,1.063-.992-1.692-1.817Z" transform="translate(-182.867 -179.327)" fill="#00853e"/>
      <g id="XMLID_26_" transform="translate(81.83 65.831)">
        <path id="XMLID_31_" d="M276.487,251.366l2.106,1.776a.933.933,0,0,1,.161,1.413c-.36.427-.761.43-1.246.019l-2.177-1.83-.832.986,2.315,1.949a1.534,1.534,0,0,0,2.382-.083,1.557,1.557,0,0,0,.321-1.679l.562.475.832-.989-3.593-3.021Z" transform="translate(-274.5 -239.733)" fill="#00853e"/>
        <path id="XMLID_30_" d="M286.832,238.309a1.621,1.621,0,0,0-.1,1.743l-.629-.4-.7,1.095,3.956,2.524.7-1.095-2.283-1.458a.929.929,0,0,1-.344-1.381c.308-.485.7-.53,1.236-.189l2.36,1.506.7-1.095-2.517-1.609a1.544,1.544,0,0,0-2.376.36" transform="translate(-281.9 -231.03)" fill="#00853e"/>
        <path id="XMLID_27_" d="M296.766,220.212l.067.032c.861.4,1.076,1.024.79,1.641-.27.584-.873.8-1.721.408l-.064-.032c-.844-.392-1.124-.966-.819-1.625.3-.639.9-.812,1.747-.424m-4.026-1.824,2.562,1.188a1.566,1.566,0,0,0-1.355,1c-.494,1.066-.045,2.251,1.355,2.9l.064.032a2.078,2.078,0,0,0,3.012-.848,1.7,1.7,0,0,0-.167-1.737l.706.328.543-1.172-6.184-2.864Z" transform="translate(-286.884 -217.22)" fill="#00853e"/>
      </g>
    </g>
  </g>
</svg>
