<svg xmlns="http://www.w3.org/2000/svg" width="112" height="75" viewBox="0 0 112 75">
  <g id="SDC_logo_left" transform="translate(86.835)">
    <path id="Path_1" data-name="Path 1" d="M0,0V40.806H27.5V0ZM20.6,26.551l-6.851-6.846L6.9,26.551H1.66L13.746,14.465,25.831,26.551Zm-1.405,0H8.3l5.445-5.445ZM14.24.989H25.816L14.245,12.565Zm-.989,11.576L1.675.989H13.246Zm-.7.7H.989V1.709ZM.989,14.26H12.551L.989,25.821Zm0,17.707H26.5V35.4H.989Zm0-.989V27.54H26.5v3.438ZM14.945,14.26H26.507V25.821ZM26.5,13.266H14.945L26.5,1.709ZM.989,39.817V36.394H26.5v3.423Z" transform="translate(-44.583)" fill="#321e1e"/>
    <g id="Group_41" data-name="Group 41" transform="translate(-86.835 48.983)">
      <g id="Group_22" data-name="Group 22" transform="translate(18.005 0)">
        <g id="Group_13" data-name="Group 13">
          <g id="Group_7" data-name="Group 7" transform="translate(28.128 1.146)">
            <rect id="Rectangle_6" data-name="Rectangle 6" width="1.146" height="1.146" fill="#321e1e"/>
          </g>
          <g id="Group_8" data-name="Group 8" transform="translate(26.184 1.146)">
            <rect id="Rectangle_7" data-name="Rectangle 7" width="1.146" height="1.146" fill="#321e1e"/>
          </g>
          <g id="Group_9" data-name="Group 9" transform="translate(6.386 9.823)">
            <rect id="Rectangle_8" data-name="Rectangle 8" width="1.146" height="1.146" fill="#321e1e"/>
          </g>
          <g id="Group_10" data-name="Group 10" transform="translate(4.437 9.823)">
            <rect id="Rectangle_9" data-name="Rectangle 9" width="1.146" height="1.146" fill="#321e1e"/>
          </g>
          <g id="Group_11" data-name="Group 11" transform="translate(0 4.138)">
            <path id="Path_2" data-name="Path 2" d="M76.654,23.28v2.047c0,1.195-.451,1.694-1.4,1.694h-.049a1.532,1.532,0,0,1-1.6-1.645v-2.1h-1v5.788c0,.7-.25,1.048-1,1.048H70.17v.847h1.694c1.3,0,1.743-.7,1.743-1.9v-1.9h.2c.2.348.3.749,1.4.749a2.291,2.291,0,0,0,2.444-2.493V23.285h-.994Z" transform="translate(-70.17 -23.28)" fill="#321e1e"/>
          </g>
          <g id="Group_12" data-name="Group 12" transform="translate(9.231)">
            <path id="Path_3" data-name="Path 3" d="M115.346,14.83v6.185c0,1-.4,1.645-1.6,1.645s-1.547-.646-1.547-1.645V14.83h-1v6.185c0,1-.25,1.645-1.347,1.645H109.7c-1.4,0-1.645-.7-1.645-1.645V18.968h-1v2.047c0,.945-.25,1.645-1.4,1.645h-.2c-1.048,0-1.4-.548-1.4-1.547a3.064,3.064,0,0,0-3.242-3.291,3.372,3.372,0,0,0-3.34,2.6h-.2V14.884h-1v7.781H94.1v-.152c0-2.541-.749-3.991-2.541-3.991a2.567,2.567,0,0,0-2.541,2.644c0,1.249.5,2.395,2.943,2.395h1.244c-.049,1.636-.7,2.194-2.091,2.194h-1.6V26.6h1.8c1.841,0,2.737-.852,2.786-3.041h6.635a3.612,3.612,0,0,0,2.781-.9h.26c.152.451.6.9,1.645.9h.451c1.146,0,1.547-.5,1.743-.945h.3c.1.451.6.945,1.645.945h.25c1.195,0,1.846-.5,1.944-.945h.3a1.61,1.61,0,0,0,1.694.945c1.993,0,2.6-1.146,2.6-2.693V14.83ZM91.708,22.66c-1.249,0-1.694-.5-1.694-1.5a1.533,1.533,0,0,1,1.547-1.694c1.195,0,1.645,1.1,1.645,3.09v.1h-1.5Zm8.927,0H97.3c.049-1.8,1.4-3.839,3.491-3.839a2.094,2.094,0,0,1,2.292,2.243C103.079,21.96,102.677,22.66,100.635,22.66Z" transform="translate(-89.02 -14.83)" fill="#321e1e"/>
          </g>
        </g>
        <g id="Group_21" data-name="Group 21" transform="translate(40.13 0.005)">
          <g id="Group_14" data-name="Group 14" transform="translate(3.095 1.645)">
            <rect id="Rectangle_10" data-name="Rectangle 10" width="1.146" height="1.146" fill="#321e1e"/>
          </g>
          <g id="Group_15" data-name="Group 15" transform="translate(1.151 1.645)">
            <rect id="Rectangle_11" data-name="Rectangle 11" width="1.146" height="1.146" fill="#321e1e"/>
          </g>
          <g id="Group_16" data-name="Group 16" transform="translate(6.435 3.741)">
            <path id="Path_4" data-name="Path 4" d="M165.26,26.569H167.5c.945,0,1.5-.4,1.5-1.4,0-.9-.847-1.8-2.395-1.8h-.847v-.9h.847c1.993,0,3.394,1.195,3.394,2.84a2.231,2.231,0,0,1-2.493,2.145h-2.243v-.9Z" transform="translate(-165.26 -22.48)" fill="#321e1e"/>
          </g>
          <g id="Group_17" data-name="Group 17" transform="translate(0 3.692)">
            <path id="Path_5" data-name="Path 5" d="M154.764,22.38a2.475,2.475,0,0,0-2.644,2.6,2.53,2.53,0,0,0,2.644,2.6,2.471,2.471,0,0,0,2.541-2.6A2.442,2.442,0,0,0,154.764,22.38Zm0,4.29a1.608,1.608,0,0,1-1.645-1.694,1.583,1.583,0,0,1,1.645-1.694,1.534,1.534,0,0,1,1.547,1.694A1.559,1.559,0,0,1,154.764,26.67Z" transform="translate(-152.12 -22.38)" fill="#321e1e"/>
          </g>
          <g id="Group_20" data-name="Group 20" transform="translate(12.521)">
            <g id="Group_18" data-name="Group 18" transform="translate(22.34)">
              <rect id="Rectangle_12" data-name="Rectangle 12" width="0.999" height="8.726" fill="#321e1e"/>
            </g>
            <g id="Group_19" data-name="Group 19">
              <path id="Path_6" data-name="Path 6" d="M196.94,20.927c0,1.195-.348,1.743-1.249,1.743h-.6c-1.048,0-1.3-.7-1.3-1.694V18.929h-1v2.047c0,1-.25,1.694-1.4,1.694-1.195,0-1.445-.7-1.445-1.694v-1.4h-1v1.4c0,1-.25,1.694-1.4,1.694s-1.4-.7-1.4-1.694v-1.4h-1v1.4c0,1-.25,1.694-1.3,1.694h-1.1v-.1c0-2.541-.749-4.04-2.542-4.04a2.567,2.567,0,0,0-2.541,2.644c0,1.249.5,2.395,2.943,2.395h1.244c-.049,1.636-.7,2.194-2.091,2.194h-1.6v.847h1.8c1.841,0,2.737-.852,2.786-3.041h1.4a1.553,1.553,0,0,0,1.547-.945h.3a1.574,1.574,0,0,0,1.6.945h.25a1.6,1.6,0,0,0,1.645-.945h.3a1.548,1.548,0,0,0,1.547.945h.348a1.522,1.522,0,0,0,1.6-.945h.3a1.577,1.577,0,0,0,1.5.945h.548c1.547,0,2.292-.945,2.292-2.493V14.84h-1ZM180.383,22.67c-1.249,0-1.694-.5-1.694-1.5a1.533,1.533,0,0,1,1.547-1.694c1.195,0,1.645,1.146,1.645,3.144v.049Z" transform="translate(-177.69 -14.84)" fill="#321e1e"/>
            </g>
          </g>
        </g>
      </g>
      <g id="Group_40" data-name="Group 40" transform="translate(0 15.161)">
        <g id="Group_23" data-name="Group 23" transform="translate(0 0.059)">
          <path id="Path_7" data-name="Path 7" d="M73.51,54.578c2.091,0,3.188-1.195,3.188-2.488a2.338,2.338,0,0,0-2.091-2.39,12.156,12.156,0,0,1-1.543-.3c-.749-.152-1.494-.4-1.494-1.146,0-.9.9-1.347,1.89-1.347,1.244,0,1.792.451,1.993,1.244H76.5c-.152-1.347-1.293-2.243-2.987-2.243-1.944,0-2.938.994-2.938,2.341,0,1.244.8,1.89,1.993,2.14.451.049,1.244.2,1.694.3.749.152,1.347.5,1.347,1.4,0,.945-.9,1.543-1.993,1.543-1.146,0-2.14-.348-2.39-1.543H70.18C70.322,53.583,71.571,54.578,73.51,54.578Z" transform="translate(-70.18 -45.91)" fill="#321e1e"/>
        </g>
        <g id="Group_24" data-name="Group 24" transform="translate(7.512 2.551)">
          <path id="Path_8" data-name="Path 8" d="M88.409,51a2.785,2.785,0,0,0-2.889,3.036,2.9,2.9,0,1,0,5.778,0A2.787,2.787,0,0,0,88.409,51Zm0,5.279c-1.244,0-1.841-.994-1.841-2.243,0-1.146.6-2.189,1.841-2.189a1.95,1.95,0,0,1,1.944,2.189C90.348,55.285,89.751,56.279,88.409,56.279Z" transform="translate(-85.52 -51)" fill="#321e1e"/>
        </g>
        <g id="Group_25" data-name="Group 25" transform="translate(14.583 2.698)">
          <path id="Path_9" data-name="Path 9" d="M102.149,57.328a2.311,2.311,0,0,0,1.792-.749h.25v.6h.945V51.3h-.994v3.188a1.813,1.813,0,0,1-1.743,1.944c-.994,0-1.445-.548-1.445-1.645V51.3H99.96v3.682A2.063,2.063,0,0,0,102.149,57.328Z" transform="translate(-99.96 -51.3)" fill="#321e1e"/>
        </g>
        <g id="Group_26" data-name="Group 26" transform="translate(20.994 0.064)">
          <path id="Path_10" data-name="Path 10" d="M117.9,45.92v3.286h-.25a1.939,1.939,0,0,0-1.792-.8c-1.694,0-2.59,1.293-2.59,3.036,0,1.792.9,3.139,2.59,3.139a2.272,2.272,0,0,0,1.841-.749h.2v.6h.994V45.92Zm-1.841,7.766c-1.146,0-1.792-.9-1.792-2.243,0-1.293.646-2.189,1.792-2.189,1.347,0,1.841,1.048,1.841,2.189C117.9,52.692,117.408,53.686,116.061,53.686Z" transform="translate(-113.27 -45.92)" fill="#321e1e"/>
        </g>
        <g id="Group_27" data-name="Group 27" transform="translate(27.83 2.551)">
          <path id="Path_11" data-name="Path 11" d="M130.042,51c-1.347,0-2.292.6-2.341,1.743h.994c0-.6.451-.9,1.347-.9,1.048,0,1.445.548,1.445,1.195v.25h-1.944a1.98,1.98,0,0,0-2.243,1.993,1.96,1.96,0,0,0,2.14,1.89,2.2,2.2,0,0,0,1.743-.749h.3v.6h.9V53.042C132.383,51.651,131.487,51,130.042,51Zm1.445,3.638a1.773,1.773,0,0,1-1.841,1.645c-.847,0-1.347-.4-1.347-1.048,0-.749.451-1.146,1.4-1.146h1.792v.548Z" transform="translate(-127.3 -51)" fill="#321e1e"/>
        </g>
        <g id="Group_28" data-name="Group 28" transform="translate(34.471 0.064)">
          <path id="Path_12" data-name="Path 12" d="M140.93,54.436h.994V51.2a1.847,1.847,0,0,1,1.743-1.944c.994,0,1.494.6,1.494,1.645v3.536h.994V50.7a2.024,2.024,0,0,0-2.189-2.292,1.9,1.9,0,0,0-1.743.8h-.3V45.92h-.994Z" transform="translate(-140.93 -45.92)" fill="#321e1e"/>
        </g>
        <g id="Group_29" data-name="Group 29" transform="translate(43.671 0.201)">
          <path id="Path_13" data-name="Path 13" d="M162.959,46.2H159.82v8.315h3.139c2.59,0,3.883-1.694,3.883-4.182S165.549,46.2,162.959,46.2Zm0,7.365h-2.042V47.1h2.042c2.042,0,2.737,1.494,2.737,3.237C165.7,52.022,165,53.565,162.959,53.565Z" transform="translate(-159.82 -46.2)" fill="#321e1e"/>
        </g>
        <g id="Group_30" data-name="Group 30" transform="translate(51.704 2.444)">
          <path id="Path_14" data-name="Path 14" d="M181.726,53.566a2.6,2.6,0,0,0-2.639-2.786c-1.792,0-2.786,1.244-2.786,3.085a2.772,2.772,0,0,0,2.889,3.085,2.211,2.211,0,0,0,2.439-1.743h-.945a1.5,1.5,0,0,1-1.494.945c-1.293,0-1.944-.847-1.944-2.243h4.481v-.343Zm-4.432-.5a1.717,1.717,0,0,1,1.792-1.4,1.447,1.447,0,0,1,1.591,1.4Z" transform="translate(-176.3 -50.78)" fill="#321e1e"/>
        </g>
        <g id="Group_31" data-name="Group 31" transform="translate(57.549 2.639)">
          <path id="Path_15" data-name="Path 15" d="M190.288,57.056h1.846l1.988-5.876h-.994l-1.645,4.926h-.495l-1.6-4.926H188.3Z" transform="translate(-188.3 -51.18)" fill="#321e1e"/>
        </g>
        <g id="Group_32" data-name="Group 32" transform="translate(63.738 2.444)">
          <path id="Path_16" data-name="Path 16" d="M206.48,53.566a2.557,2.557,0,0,0-2.59-2.786A2.776,2.776,0,0,0,201,53.865a2.8,2.8,0,0,0,2.889,3.085c1.445,0,2.341-.7,2.488-1.743h-.994c-.152.6-.646.945-1.494.945-1.244,0-1.841-.847-1.841-2.243h4.432v-.343Zm-4.432-.5a1.717,1.717,0,0,1,1.792-1.4,1.531,1.531,0,0,1,1.645,1.4Z" transform="translate(-201 -50.78)" fill="#321e1e"/>
        </g>
        <g id="Group_33" data-name="Group 33" transform="translate(70.539)">
          <rect id="Rectangle_13" data-name="Rectangle 13" width="0.994" height="8.516" fill="#321e1e"/>
        </g>
        <g id="Group_34" data-name="Group 34" transform="translate(72.599 2.439)">
          <path id="Path_17" data-name="Path 17" d="M222.128,50.77a2.906,2.906,0,0,0-2.938,3.139,2.822,2.822,0,0,0,2.938,3.036,2.748,2.748,0,0,0,2.84-3.036A2.834,2.834,0,0,0,222.128,50.77Zm0,5.377a1.992,1.992,0,0,1-1.944-2.243c0-1.195.6-2.243,1.944-2.243,1.244,0,1.841,1.048,1.841,2.243C223.969,55.055,223.372,56.147,222.128,56.147Z" transform="translate(-219.19 -50.77)" fill="#321e1e"/>
        </g>
        <g id="Group_35" data-name="Group 35" transform="translate(79.528 2.439)">
          <path id="Path_18" data-name="Path 18" d="M236.446,50.77a2.213,2.213,0,0,0-1.841.8h-.25v-.6h-.945v8.217h.945V56.2h.25a2.133,2.133,0,0,0,1.841.749c1.592,0,2.59-1.293,2.59-3.036S238.038,50.77,236.446,50.77Zm-.25,5.377c-1.293,0-1.841-1.1-1.841-2.243,0-1.195.548-2.243,1.841-2.243,1.195,0,1.841.9,1.841,2.243C238.038,55.2,237.391,56.147,236.2,56.147Z" transform="translate(-233.41 -50.77)" fill="#321e1e"/>
        </g>
        <g id="Group_36" data-name="Group 36" transform="translate(86.446 2.439)">
          <path id="Path_19" data-name="Path 19" d="M247.635,56.847h.945V53.561c0-.994.451-1.89,1.445-1.89.749,0,1.146.5,1.146,1.494v3.682h.994V53.463c0-1.048.5-1.792,1.445-1.792.749,0,1.1.5,1.1,1.494v3.682h.994V53.013c0-1.347-.548-2.243-1.944-2.243a1.971,1.971,0,0,0-1.645.8h-.25a1.665,1.665,0,0,0-1.543-.8,1.593,1.593,0,0,0-1.494.749h-.3v-.548h-.9v5.876Z" transform="translate(-247.63 -50.77)" fill="#321e1e"/>
        </g>
        <g id="Group_37" data-name="Group 37" transform="translate(102.441 2.444)">
          <path id="Path_20" data-name="Path 20" d="M280.48,56.852h.994V53.664a1.9,1.9,0,0,1,1.792-1.993c.945,0,1.445.548,1.445,1.645v3.536h.994V53.17c0-1.494-.749-2.39-2.189-2.39a2.361,2.361,0,0,0-1.841.8h-.2v-.6h-.994Z" transform="translate(-280.48 -50.78)" fill="#321e1e"/>
        </g>
        <g id="Group_38" data-name="Group 38" transform="translate(108.567 0.847)">
          <path id="Path_21" data-name="Path 21" d="M296.026,55.189h.4v-.945h-.4c-.847,0-1.1-.25-1.1-.847V50.159h1.494v-.847h-1.494V47.52h-.994v1.792h-.945v.847h.945v3.384C293.935,54.787,294.679,55.189,296.026,55.189Z" transform="translate(-292.99 -47.52)" fill="#321e1e"/>
        </g>
        <g id="Group_39" data-name="Group 39" transform="translate(95.669 2.444)">
          <path id="Path_22" data-name="Path 22" d="M272.13,53.566a2.557,2.557,0,0,0-2.59-2.786,2.776,2.776,0,0,0-2.889,3.085,2.8,2.8,0,0,0,2.889,3.085c1.445,0,2.341-.7,2.488-1.743h-.994c-.152.6-.646.945-1.494.945-1.244,0-1.841-.847-1.841-2.243h4.432Zm-4.432-.5a1.717,1.717,0,0,1,1.792-1.4,1.53,1.53,0,0,1,1.645,1.4Z" transform="translate(-266.65 -50.78)" fill="#321e1e"/>
        </g>
      </g>
    </g>
  </g>
</svg>
