<?xml version="1.0" encoding="utf-8"?>
<!-- Generator: Adobe Illustrator 25.4.1, SVG Export Plug-In . SVG Version: 6.00 Build 0)  -->
<svg version="1.1" id="Layer_1" xmlns="http://www.w3.org/2000/svg" xmlns:xlink="http://www.w3.org/1999/xlink" x="0px" y="0px"
	 viewBox="0 0 300 83.33" style="enable-background:new 0 0 300 83.33;" xml:space="preserve">
<style type="text/css">
	.st0{fill:#321E1E;}
</style>
<g>
	<path class="st0" d="M0,0v83.33h56.15V0H0z M42.06,54.22L28.07,40.24L14.09,54.22H3.39l24.68-24.68l24.68,24.68H42.06z
		 M39.19,54.22H16.95L28.07,43.1L39.19,54.22z M29.08,2.02h23.64L29.09,25.66L29.08,2.02z M27.06,25.66L3.42,2.02h23.63L27.06,25.66
		z M25.63,27.09H2.02V3.49L25.63,27.09z M2.02,29.12h23.61L2.02,52.73V29.12z M2.02,65.28h52.1v7.02H2.02V65.28z M2.02,63.26v-7.02
		h52.1v7.02H2.02z M30.52,29.12h23.61v23.61L30.52,29.12z M54.12,27.09H30.52L54.12,3.49V27.09z M2.02,81.31v-6.99h52.1v6.99H2.02z"
		/>
	<g>
		<g>
			<g>
				<g>
					<rect x="127.61" y="17.17" class="st0" width="2.34" height="2.34"/>
				</g>
				<g>
					<rect x="123.64" y="17.17" class="st0" width="2.34" height="2.34"/>
				</g>
				<g>
					<rect x="83.21" y="34.89" class="st0" width="2.34" height="2.34"/>
				</g>
				<g>
					<rect x="79.23" y="34.89" class="st0" width="2.34" height="2.34"/>
				</g>
				<g>
					<path class="st0" d="M83.41,23.28v4.18c0,2.44-0.92,3.46-2.85,3.46h-0.1c-2.04,0-3.26-1.43-3.26-3.36v-4.28h-2.04V35.1
						c0,1.43-0.51,2.14-2.04,2.14h-2.95v1.73h3.46c2.65,0,3.56-1.43,3.56-3.87v-3.87h0.41c0.41,0.71,0.61,1.53,2.85,1.53
						c3.26,0,4.99-2.14,4.99-5.09v-4.38H83.41z"/>
				</g>
				<g>
					<path class="st0" d="M142.78,14.83v12.63c0,2.04-0.81,3.36-3.26,3.36c-2.44,0-3.16-1.32-3.16-3.36V14.83h-2.04v12.63
						c0,2.04-0.51,3.36-2.75,3.36h-0.31c-2.85,0-3.36-1.43-3.36-3.36v-4.18h-2.04v4.18c0,1.93-0.51,3.36-2.85,3.36h-0.41
						c-2.14,0-2.85-1.12-2.85-3.16c0-4.79-3.36-6.72-6.62-6.72c-3.26,0-6.11,2.14-6.82,5.3h-0.41v-11.3h-2.04v15.89h-0.81h-0.2H99.4
						v-0.31c0-5.19-1.53-8.15-5.19-8.15c-3.36,0-5.19,2.85-5.19,5.4c0,2.55,1.02,4.89,6.01,4.89h2.54c-0.1,3.34-1.43,4.48-4.27,4.48
						h-3.26v1.73h3.67c3.76,0,5.59-1.74,5.69-6.21h3.68h0.81h9.06c2.93,0,4.69-0.75,5.68-1.83h0.53c0.31,0.92,1.22,1.83,3.36,1.83
						h0.92c2.34,0,3.16-1.02,3.56-1.93h0.61c0.2,0.92,1.22,1.93,3.36,1.93h0.51c2.44,0,3.77-1.02,3.97-1.93h0.61
						c0.41,0.92,1.22,1.93,3.46,1.93c4.07,0,5.3-2.34,5.3-5.5V14.83H142.78z M94.51,30.82c-2.55,0-3.46-1.02-3.46-3.06
						c0-2.04,1.22-3.46,3.16-3.46c2.44,0,3.36,2.24,3.36,6.31v0.2H94.51z M112.74,30.82h-6.82c0.1-3.67,2.85-7.84,7.13-7.84
						c2.24,0,4.68,1.12,4.68,4.58C117.73,29.39,116.91,30.82,112.74,30.82z"/>
				</g>
			</g>
			<g>
				<g>
					<rect x="158.44" y="18.2" class="st0" width="2.34" height="2.34"/>
				</g>
				<g>
					<rect x="154.47" y="18.2" class="st0" width="2.34" height="2.34"/>
				</g>
				<g>
					<path class="st0" d="M165.26,30.83h4.58c1.93,0,3.06-0.81,3.06-2.85c0-1.83-1.73-3.67-4.89-3.67h-1.73v-1.83h1.73
						c4.07,0,6.93,2.44,6.93,5.8c0,2.44-1.93,4.38-5.09,4.38h-4.58V30.83z"/>
				</g>
				<g>
					<path class="st0" d="M157.52,22.38c-3.36,0-5.4,2.24-5.4,5.3c0,2.85,2.04,5.3,5.4,5.3c3.26,0,5.19-2.44,5.19-5.3
						C162.72,24.72,160.78,22.38,157.52,22.38z M157.52,31.14c-2.14,0-3.36-1.63-3.36-3.46c0-1.93,1.22-3.46,3.36-3.46
						c2.04,0,3.16,1.53,3.16,3.46C160.68,29.51,159.56,31.14,157.52,31.14z"/>
				</g>
				<g>
					<g>
						<rect x="223.31" y="14.84" class="st0" width="2.04" height="17.82"/>
					</g>
					<g>
						<path class="st0" d="M217,27.27c0,2.44-0.71,3.56-2.55,3.56h-0.1h-1.12c-2.14,0-2.65-1.43-2.65-3.46v-4.18h-2.04v4.18
							c0,2.04-0.51,3.46-2.85,3.46c-2.44,0-2.95-1.43-2.95-3.46v-2.85h-2.04v2.85c0,2.04-0.51,3.46-2.85,3.46S195,29.41,195,27.37
							v-2.85h-2.04v2.85c0,2.04-0.51,3.46-2.65,3.46h-1.12h-0.51h-0.61v-0.2c0-5.19-1.53-8.25-5.19-8.25c-3.36,0-5.19,2.85-5.19,5.4
							c0,2.55,1.02,4.89,6.01,4.89h2.54c-0.1,3.34-1.43,4.48-4.27,4.48h-3.26v1.73h3.67c3.76,0,5.59-1.74,5.69-6.21h0.62h0.51h1.73
							c1.93,0,2.85-1.12,3.16-1.93h0.61c0.31,0.81,1.22,1.93,3.26,1.93h0.51c2.14,0,3.06-1.12,3.36-1.93h0.61
							c0.31,0.81,1.22,1.93,3.16,1.93h0.71c2.04,0,3.06-1.12,3.26-1.93h0.61c0.41,0.81,1.22,1.93,3.06,1.93h0.61h0.51
							c3.16,0,4.68-1.93,4.68-5.09V14.84H217V27.27z M183.19,30.83c-2.55,0-3.46-1.02-3.46-3.06c0-2.04,1.22-3.46,3.16-3.46
							c2.44,0,3.36,2.34,3.36,6.42v0.1H183.19z"/>
					</g>
				</g>
			</g>
		</g>
		<g>
			<g>
				<path class="st0" d="M76.98,63.61c4.27,0,6.51-2.44,6.51-5.08c0-2.85-1.73-4.27-4.27-4.88c-0.92-0.1-2.44-0.41-3.15-0.61
					c-1.53-0.31-3.05-0.81-3.05-2.34c0-1.83,1.83-2.75,3.86-2.75c2.54,0,3.66,0.92,4.07,2.54h2.14c-0.31-2.75-2.64-4.58-6.1-4.58
					c-3.97,0-6,2.03-6,4.78c0,2.54,1.63,3.86,4.07,4.37c0.92,0.1,2.54,0.41,3.46,0.61c1.53,0.31,2.75,1.02,2.75,2.85
					c0,1.93-1.83,3.15-4.07,3.15c-2.34,0-4.37-0.71-4.88-3.15h-2.14C70.47,61.58,73.02,63.61,76.98,63.61z"/>
			</g>
			<g>
				<path class="st0" d="M91.42,51c-3.76,0-5.9,2.64-5.9,6.2c0,3.66,2.14,6.41,5.9,6.41c3.76,0,5.9-2.75,5.9-6.41
					C97.32,53.65,95.18,51,91.42,51z M91.42,61.78c-2.54,0-3.76-2.03-3.76-4.58c0-2.34,1.22-4.47,3.76-4.47
					c2.75,0,3.97,2.14,3.97,4.47C95.38,59.75,94.16,61.78,91.42,61.78z"/>
			</g>
			<g>
				<path class="st0" d="M104.43,63.61c1.73,0,2.95-0.71,3.66-1.53h0.51v1.22h1.93v-12h-2.03v6.51c0,2.14-1.42,3.97-3.56,3.97
					c-2.03,0-2.95-1.12-2.95-3.36v-7.12h-2.03v7.52C99.96,61.78,101.49,63.61,104.43,63.61z"/>
			</g>
			<g>
				<path class="st0" d="M122.73,45.92v6.71h-0.51c-0.71-1.02-1.73-1.63-3.66-1.63c-3.46,0-5.29,2.64-5.29,6.2
					c0,3.66,1.83,6.41,5.29,6.41c1.93,0,3.05-0.71,3.76-1.53h0.41v1.22h2.03V45.92H122.73z M118.97,61.78
					c-2.34,0-3.66-1.83-3.66-4.58c0-2.64,1.32-4.47,3.66-4.47c2.75,0,3.76,2.14,3.76,4.47C122.73,59.75,121.72,61.78,118.97,61.78z"
					/>
			</g>
			<g>
				<path class="st0" d="M132.9,51c-2.75,0-4.68,1.22-4.78,3.56h2.03c0-1.22,0.92-1.83,2.75-1.83c2.14,0,2.95,1.12,2.95,2.44v0.51
					h-3.97c-3.36,0-4.58,2.14-4.58,4.07c0,1.93,1.53,3.86,4.37,3.86c1.63,0,2.95-0.71,3.56-1.53h0.61v1.22h1.83v-8.13
					C137.68,52.33,135.85,51,132.9,51z M135.85,58.43c0,1.93-1.83,3.36-3.76,3.36c-1.73,0-2.75-0.81-2.75-2.14
					c0-1.53,0.92-2.34,2.85-2.34h3.66V58.43z"/>
			</g>
			<g>
				<path class="st0" d="M140.93,63.31h2.03V56.7c0-2.14,1.53-3.97,3.56-3.97c2.03,0,3.05,1.22,3.05,3.36v7.22h2.03v-7.63
					c0-2.95-1.53-4.68-4.47-4.68c-1.73,0-2.95,0.61-3.56,1.63h-0.61v-6.71h-2.03V63.31z"/>
			</g>
			<g>
				<path class="st0" d="M166.23,46.2h-6.41v16.98h6.41c5.29,0,7.93-3.46,7.93-8.54C174.16,49.55,171.52,46.2,166.23,46.2z
					 M166.23,61.24h-4.17V48.03h4.17c4.17,0,5.59,3.05,5.59,6.61C171.83,58.09,170.4,61.24,166.23,61.24z"/>
			</g>
			<g>
				<path class="st0" d="M187.38,56.47c0-2.95-1.83-5.69-5.39-5.69c-3.66,0-5.69,2.54-5.69,6.3c0,3.66,2.03,6.3,5.9,6.3
					c2.85,0,4.58-1.42,4.98-3.56h-1.93c-0.51,1.22-1.53,1.93-3.05,1.93c-2.64,0-3.97-1.73-3.97-4.58h9.15V56.47z M178.33,55.45
					c0.31-1.53,1.53-2.85,3.66-2.85c2.03,0,3.25,1.32,3.25,2.85H178.33z"/>
			</g>
			<g>
				<polygon class="st0" points="192.36,63.18 196.13,63.18 200.19,51.18 198.16,51.18 194.8,61.24 193.79,61.24 190.53,51.18 
					188.3,51.18 				"/>
			</g>
			<g>
				<path class="st0" d="M212.19,56.47c0-2.95-1.73-5.69-5.29-5.69c-3.76,0-5.9,2.54-5.9,6.3c0,3.66,2.14,6.3,5.9,6.3
					c2.95,0,4.78-1.42,5.08-3.56h-2.03c-0.31,1.22-1.32,1.93-3.05,1.93c-2.54,0-3.76-1.73-3.76-4.58h9.05V56.47z M203.14,55.45
					c0.31-1.53,1.53-2.85,3.66-2.85c2.03,0,3.25,1.32,3.36,2.85H203.14z"/>
			</g>
			<g>
				<rect x="214.93" y="45.79" class="st0" width="2.03" height="17.39"/>
			</g>
			<g>
				<path class="st0" d="M225.19,50.77c-3.76,0-6,2.85-6,6.41c0,3.56,2.24,6.2,6,6.2c3.76,0,5.8-2.64,5.8-6.2
					C230.98,53.62,228.95,50.77,225.19,50.77z M225.19,61.75c-2.75,0-3.97-2.24-3.97-4.58c0-2.44,1.22-4.58,3.97-4.58
					c2.54,0,3.76,2.14,3.76,4.58C228.95,59.52,227.73,61.75,225.19,61.75z"/>
			</g>
			<g>
				<path class="st0" d="M239.61,50.77c-1.93,0-3.15,0.81-3.76,1.63h-0.51v-1.22h-1.93v16.78h1.93v-6.1h0.51
					c0.71,0.92,1.83,1.53,3.76,1.53c3.25,0,5.29-2.64,5.29-6.2C244.89,53.62,242.86,50.77,239.61,50.77z M239.1,61.75
					c-2.64,0-3.76-2.24-3.76-4.58c0-2.44,1.12-4.58,3.76-4.58c2.44,0,3.76,1.83,3.76,4.58C242.86,59.82,241.54,61.75,239.1,61.75z"
					/>
			</g>
			<g>
				<path class="st0" d="M247.64,63.18h1.93v-6.71c0-2.03,0.92-3.86,2.95-3.86c1.53,0,2.34,1.02,2.34,3.05v7.52h2.03v-6.91
					c0-2.14,1.02-3.66,2.95-3.66c1.53,0,2.24,1.02,2.24,3.05v7.52h2.03v-7.83c0-2.75-1.12-4.58-3.97-4.58
					c-1.42,0-2.64,0.61-3.36,1.63h-0.51c-0.61-1.02-1.63-1.63-3.15-1.63s-2.54,0.61-3.05,1.53h-0.61v-1.12h-1.83V63.18z"/>
			</g>
			<g>
				<path class="st0" d="M280.48,63.18h2.03v-6.51c0-2.14,1.53-4.07,3.66-4.07c1.93,0,2.95,1.12,2.95,3.36v7.22h2.03v-7.52
					c0-3.05-1.53-4.88-4.47-4.88c-1.63,0-3.05,0.71-3.76,1.63h-0.41v-1.22h-2.03V63.18z"/>
			</g>
			<g>
				<path class="st0" d="M299.19,63.18H300v-1.93h-0.81c-1.73,0-2.24-0.51-2.24-1.73v-6.61H300v-1.73h-3.05v-3.66h-2.03v3.66h-1.93
					v1.73h1.93v6.91C294.92,62.36,296.44,63.18,299.19,63.18z"/>
			</g>
			<g>
				<path class="st0" d="M277.84,56.47c0-2.95-1.73-5.69-5.29-5.69c-3.76,0-5.9,2.54-5.9,6.3c0,3.66,2.14,6.3,5.9,6.3
					c2.95,0,4.78-1.42,5.08-3.56h-2.03c-0.31,1.22-1.32,1.93-3.05,1.93c-2.54,0-3.76-1.73-3.76-4.58h9.05V56.47z M268.79,55.45
					c0.31-1.53,1.53-2.85,3.66-2.85c2.03,0,3.25,1.32,3.36,2.85H268.79z"/>
			</g>
		</g>
	</g>
</g>
</svg>
