<svg xmlns="http://www.w3.org/2000/svg" width="295.97" height="83.33" viewBox="0 0 295.97 83.33">
  <g id="sdc-left" transform="translate(-70.18)">
    <path id="Path_14" data-name="Path 14" d="M0,0V83.33H56.15V0ZM42.06,54.22,28.07,40.24,14.09,54.22H3.39L28.07,29.54,52.75,54.22Zm-2.87,0H16.95L28.07,43.1ZM29.08,2.02H52.72L29.09,25.66ZM27.06,25.66,3.42,2.02H27.05Zm-1.43,1.43H2.02V3.49ZM2.02,29.12H25.63L2.02,52.73Zm0,36.16h52.1V72.3H2.02Zm0-2.02V56.24h52.1v7.02Zm28.5-34.14H54.13V52.73Zm23.6-2.03H30.52l23.6-23.6ZM2.02,81.31V74.32h52.1v6.99Z" transform="translate(310)" fill="#321e1e"/>
    <g id="Group_41" data-name="Group 41">
      <g id="Group_22" data-name="Group 22" transform="translate(74.65)">
        <g id="Group_13" data-name="Group 13">
          <g id="Group_7" data-name="Group 7">
            <rect id="Rectangle_1" data-name="Rectangle 1" width="2.34" height="2.34" transform="translate(127.61 17.17)" fill="#321e1e"/>
          </g>
          <g id="Group_8" data-name="Group 8">
            <rect id="Rectangle_2" data-name="Rectangle 2" width="2.34" height="2.34" transform="translate(123.64 17.17)" fill="#321e1e"/>
          </g>
          <g id="Group_9" data-name="Group 9">
            <rect id="Rectangle_3" data-name="Rectangle 3" width="2.34" height="2.34" transform="translate(83.21 34.89)" fill="#321e1e"/>
          </g>
          <g id="Group_10" data-name="Group 10">
            <rect id="Rectangle_4" data-name="Rectangle 4" width="2.34" height="2.34" transform="translate(79.23 34.89)" fill="#321e1e"/>
          </g>
          <g id="Group_11" data-name="Group 11">
            <path id="Path_15" data-name="Path 15" d="M83.41,23.28v4.18c0,2.44-.92,3.46-2.85,3.46h-.1a3.128,3.128,0,0,1-3.26-3.36V23.28H75.16V35.1c0,1.43-.51,2.14-2.04,2.14H70.17v1.73h3.46c2.65,0,3.56-1.43,3.56-3.87V31.23h.41c.41.71.61,1.53,2.85,1.53,3.26,0,4.99-2.14,4.99-5.09V23.29H83.41Z" fill="#321e1e"/>
          </g>
          <g id="Group_12" data-name="Group 12">
            <path id="Path_16" data-name="Path 16" d="M142.78,14.83V27.46c0,2.04-.81,3.36-3.26,3.36s-3.16-1.32-3.16-3.36V14.83h-2.04V27.46c0,2.04-.51,3.36-2.75,3.36h-.31c-2.85,0-3.36-1.43-3.36-3.36V23.28h-2.04v4.18c0,1.93-.51,3.36-2.85,3.36h-.41c-2.14,0-2.85-1.12-2.85-3.16,0-4.79-3.36-6.72-6.62-6.72a6.886,6.886,0,0,0-6.82,5.3h-.41V14.94h-2.04V30.83H99.4v-.31c0-5.19-1.53-8.15-5.19-8.15a5.241,5.241,0,0,0-5.19,5.4c0,2.55,1.02,4.89,6.01,4.89h2.54c-.1,3.34-1.43,4.48-4.27,4.48H90.04v1.73h3.67c3.76,0,5.59-1.74,5.69-6.21h13.55c2.93,0,4.69-.75,5.68-1.83h.53c.31.92,1.22,1.83,3.36,1.83h.92c2.34,0,3.16-1.02,3.56-1.93h.61c.2.92,1.22,1.93,3.36,1.93h.51c2.44,0,3.77-1.02,3.97-1.93h.61c.41.92,1.22,1.93,3.46,1.93,4.07,0,5.3-2.34,5.3-5.5V14.83ZM94.51,30.82c-2.55,0-3.46-1.02-3.46-3.06s1.22-3.46,3.16-3.46c2.44,0,3.36,2.24,3.36,6.31v.2H94.51Zm18.23,0h-6.82c.1-3.67,2.85-7.84,7.13-7.84,2.24,0,4.68,1.12,4.68,4.58C117.73,29.39,116.91,30.82,112.74,30.82Z" fill="#321e1e"/>
          </g>
        </g>
        <g id="Group_21" data-name="Group 21">
          <g id="Group_14" data-name="Group 14">
            <rect id="Rectangle_5" data-name="Rectangle 5" width="2.34" height="2.34" transform="translate(158.44 18.2)" fill="#321e1e"/>
          </g>
          <g id="Group_15" data-name="Group 15">
            <rect id="Rectangle_6" data-name="Rectangle 6" width="2.34" height="2.34" transform="translate(154.47 18.2)" fill="#321e1e"/>
          </g>
          <g id="Group_16" data-name="Group 16">
            <path id="Path_17" data-name="Path 17" d="M165.26,30.83h4.58c1.93,0,3.06-.81,3.06-2.85,0-1.83-1.73-3.67-4.89-3.67h-1.73V22.48h1.73c4.07,0,6.93,2.44,6.93,5.8,0,2.44-1.93,4.38-5.09,4.38h-4.58V30.83Z" fill="#321e1e"/>
          </g>
          <g id="Group_17" data-name="Group 17">
            <path id="Path_18" data-name="Path 18" d="M157.52,22.38a5.055,5.055,0,0,0-5.4,5.3,5.167,5.167,0,0,0,5.4,5.3,5.046,5.046,0,0,0,5.19-5.3A4.987,4.987,0,0,0,157.52,22.38Zm0,8.76a3.285,3.285,0,0,1-3.36-3.46,3.232,3.232,0,0,1,3.36-3.46c2.04,0,3.16,1.53,3.16,3.46A3.185,3.185,0,0,1,157.52,31.14Z" fill="#321e1e"/>
          </g>
          <g id="Group_20" data-name="Group 20">
            <g id="Group_18" data-name="Group 18">
              <rect id="Rectangle_7" data-name="Rectangle 7" width="2.04" height="17.82" transform="translate(223.31 14.84)" fill="#321e1e"/>
            </g>
            <g id="Group_19" data-name="Group 19">
              <path id="Path_19" data-name="Path 19" d="M217,27.27c0,2.44-.71,3.56-2.55,3.56h-1.22c-2.14,0-2.65-1.43-2.65-3.46V23.19h-2.04v4.18c0,2.04-.51,3.46-2.85,3.46-2.44,0-2.95-1.43-2.95-3.46V24.52H200.7v2.85c0,2.04-.51,3.46-2.85,3.46S195,29.41,195,27.37V24.52h-2.04v2.85c0,2.04-.51,3.46-2.65,3.46h-2.24v-.2c0-5.19-1.53-8.25-5.19-8.25a5.241,5.241,0,0,0-5.19,5.4c0,2.55,1.02,4.89,6.01,4.89h2.54c-.1,3.34-1.43,4.48-4.27,4.48h-3.26v1.73h3.67c3.76,0,5.59-1.74,5.69-6.21h2.86a3.172,3.172,0,0,0,3.16-1.93h.61a3.215,3.215,0,0,0,3.26,1.93h.51c2.14,0,3.06-1.12,3.36-1.93h.61a3.162,3.162,0,0,0,3.16,1.93h.71c2.04,0,3.06-1.12,3.26-1.93h.61a3.22,3.22,0,0,0,3.06,1.93h1.12c3.16,0,4.68-1.93,4.68-5.09V14.84H217Zm-33.81,3.56c-2.55,0-3.46-1.02-3.46-3.06s1.22-3.46,3.16-3.46c2.44,0,3.36,2.34,3.36,6.42v.1h-3.06Z" fill="#321e1e"/>
            </g>
          </g>
        </g>
      </g>
      <g id="Group_40" data-name="Group 40">
        <g id="Group_23" data-name="Group 23">
          <path id="Path_20" data-name="Path 20" d="M76.98,63.61c4.27,0,6.51-2.44,6.51-5.08,0-2.85-1.73-4.27-4.27-4.88a24.826,24.826,0,0,1-3.15-.61c-1.53-.31-3.05-.81-3.05-2.34,0-1.83,1.83-2.75,3.86-2.75,2.54,0,3.66.92,4.07,2.54h2.14c-.31-2.75-2.64-4.58-6.1-4.58-3.97,0-6,2.03-6,4.78,0,2.54,1.63,3.86,4.07,4.37.92.1,2.54.41,3.46.61,1.53.31,2.75,1.02,2.75,2.85,0,1.93-1.83,3.15-4.07,3.15-2.34,0-4.37-.71-4.88-3.15H70.18C70.47,61.58,73.02,63.61,76.98,63.61Z" fill="#321e1e"/>
        </g>
        <g id="Group_24" data-name="Group 24">
          <path id="Path_21" data-name="Path 21" d="M91.42,51c-3.76,0-5.9,2.64-5.9,6.2,0,3.66,2.14,6.41,5.9,6.41s5.9-2.75,5.9-6.41C97.32,53.65,95.18,51,91.42,51Zm0,10.78c-2.54,0-3.76-2.03-3.76-4.58,0-2.34,1.22-4.47,3.76-4.47,2.75,0,3.97,2.14,3.97,4.47C95.38,59.75,94.16,61.78,91.42,61.78Z" fill="#321e1e"/>
        </g>
        <g id="Group_25" data-name="Group 25">
          <path id="Path_22" data-name="Path 22" d="M104.43,63.61a4.719,4.719,0,0,0,3.66-1.53h.51V63.3h1.93v-12H108.5v6.51a3.7,3.7,0,0,1-3.56,3.97c-2.03,0-2.95-1.12-2.95-3.36V51.3H99.96v7.52C99.96,61.78,101.49,63.61,104.43,63.61Z" fill="#321e1e"/>
        </g>
        <g id="Group_26" data-name="Group 26">
          <path id="Path_23" data-name="Path 23" d="M122.73,45.92v6.71h-.51A3.959,3.959,0,0,0,118.56,51c-3.46,0-5.29,2.64-5.29,6.2,0,3.66,1.83,6.41,5.29,6.41a4.64,4.64,0,0,0,3.76-1.53h.41V63.3h2.03V45.92Zm-3.76,15.86c-2.34,0-3.66-1.83-3.66-4.58,0-2.64,1.32-4.47,3.66-4.47,2.75,0,3.76,2.14,3.76,4.47C122.73,59.75,121.72,61.78,118.97,61.78Z" fill="#321e1e"/>
        </g>
        <g id="Group_27" data-name="Group 27">
          <path id="Path_24" data-name="Path 24" d="M132.9,51c-2.75,0-4.68,1.22-4.78,3.56h2.03c0-1.22.92-1.83,2.75-1.83,2.14,0,2.95,1.12,2.95,2.44v.51h-3.97c-3.36,0-4.58,2.14-4.58,4.07s1.53,3.86,4.37,3.86a4.491,4.491,0,0,0,3.56-1.53h.61V63.3h1.83V55.17C137.68,52.33,135.85,51,132.9,51Zm2.95,7.43a3.62,3.62,0,0,1-3.76,3.36c-1.73,0-2.75-.81-2.75-2.14,0-1.53.92-2.34,2.85-2.34h3.66v1.12Z" fill="#321e1e"/>
        </g>
        <g id="Group_28" data-name="Group 28">
          <path id="Path_25" data-name="Path 25" d="M140.93,63.31h2.03V56.7a3.773,3.773,0,0,1,3.56-3.97c2.03,0,3.05,1.22,3.05,3.36v7.22h2.03V55.68c0-2.95-1.53-4.68-4.47-4.68a3.887,3.887,0,0,0-3.56,1.63h-.61V45.92h-2.03Z" fill="#321e1e"/>
        </g>
        <g id="Group_29" data-name="Group 29">
          <path id="Path_26" data-name="Path 26" d="M166.23,46.2h-6.41V63.18h6.41c5.29,0,7.93-3.46,7.93-8.54S171.52,46.2,166.23,46.2Zm0,15.04h-4.17V48.03h4.17c4.17,0,5.59,3.05,5.59,6.61C171.83,58.09,170.4,61.24,166.23,61.24Z" fill="#321e1e"/>
        </g>
        <g id="Group_30" data-name="Group 30">
          <path id="Path_27" data-name="Path 27" d="M187.38,56.47c0-2.95-1.83-5.69-5.39-5.69-3.66,0-5.69,2.54-5.69,6.3,0,3.66,2.03,6.3,5.9,6.3,2.85,0,4.58-1.42,4.98-3.56h-1.93a3.055,3.055,0,0,1-3.05,1.93c-2.64,0-3.97-1.73-3.97-4.58h9.15v-.7Zm-9.05-1.02a3.506,3.506,0,0,1,3.66-2.85,2.955,2.955,0,0,1,3.25,2.85Z" fill="#321e1e"/>
        </g>
        <g id="Group_31" data-name="Group 31">
          <path id="Path_28" data-name="Path 28" d="M192.36,63.18h3.77l4.06-12h-2.03L194.8,61.24h-1.01l-3.26-10.06H188.3Z" fill="#321e1e"/>
        </g>
        <g id="Group_32" data-name="Group 32">
          <path id="Path_29" data-name="Path 29" d="M212.19,56.47c0-2.95-1.73-5.69-5.29-5.69-3.76,0-5.9,2.54-5.9,6.3,0,3.66,2.14,6.3,5.9,6.3,2.95,0,4.78-1.42,5.08-3.56h-2.03c-.31,1.22-1.32,1.93-3.05,1.93-2.54,0-3.76-1.73-3.76-4.58h9.05v-.7Zm-9.05-1.02a3.506,3.506,0,0,1,3.66-2.85,3.126,3.126,0,0,1,3.36,2.85Z" fill="#321e1e"/>
        </g>
        <g id="Group_33" data-name="Group 33">
          <rect id="Rectangle_8" data-name="Rectangle 8" width="2.03" height="17.39" transform="translate(214.93 45.79)" fill="#321e1e"/>
        </g>
        <g id="Group_34" data-name="Group 34">
          <path id="Path_30" data-name="Path 30" d="M225.19,50.77c-3.76,0-6,2.85-6,6.41s2.24,6.2,6,6.2,5.8-2.64,5.8-6.2S228.95,50.77,225.19,50.77Zm0,10.98c-2.75,0-3.97-2.24-3.97-4.58,0-2.44,1.22-4.58,3.97-4.58,2.54,0,3.76,2.14,3.76,4.58C228.95,59.52,227.73,61.75,225.19,61.75Z" fill="#321e1e"/>
        </g>
        <g id="Group_35" data-name="Group 35">
          <path id="Path_31" data-name="Path 31" d="M239.61,50.77a4.519,4.519,0,0,0-3.76,1.63h-.51V51.18h-1.93V67.96h1.93v-6.1h.51a4.355,4.355,0,0,0,3.76,1.53c3.25,0,5.29-2.64,5.29-6.2S242.86,50.77,239.61,50.77Zm-.51,10.98c-2.64,0-3.76-2.24-3.76-4.58,0-2.44,1.12-4.58,3.76-4.58,2.44,0,3.76,1.83,3.76,4.58C242.86,59.82,241.54,61.75,239.1,61.75Z" fill="#321e1e"/>
        </g>
        <g id="Group_36" data-name="Group 36">
          <path id="Path_32" data-name="Path 32" d="M247.64,63.18h1.93V56.47c0-2.03.92-3.86,2.95-3.86,1.53,0,2.34,1.02,2.34,3.05v7.52h2.03V56.27c0-2.14,1.02-3.66,2.95-3.66,1.53,0,2.24,1.02,2.24,3.05v7.52h2.03V55.35c0-2.75-1.12-4.58-3.97-4.58a4.025,4.025,0,0,0-3.36,1.63h-.51a3.4,3.4,0,0,0-3.15-1.63,3.253,3.253,0,0,0-3.05,1.53h-.61V51.18h-1.83v12Z" fill="#321e1e"/>
        </g>
        <g id="Group_37" data-name="Group 37">
          <path id="Path_33" data-name="Path 33" d="M280.48,63.18h2.03V56.67a3.877,3.877,0,0,1,3.66-4.07c1.93,0,2.95,1.12,2.95,3.36v7.22h2.03V55.66c0-3.05-1.53-4.88-4.47-4.88a4.821,4.821,0,0,0-3.76,1.63h-.41V51.19h-2.03Z" fill="#321e1e"/>
        </g>
        <g id="Group_38" data-name="Group 38">
          <path id="Path_34" data-name="Path 34" d="M299.19,63.18H300V61.25h-.81c-1.73,0-2.24-.51-2.24-1.73V52.91H300V51.18h-3.05V47.52h-2.03v3.66h-1.93v1.73h1.93v6.91C294.92,62.36,296.44,63.18,299.19,63.18Z" fill="#321e1e"/>
        </g>
        <g id="Group_39" data-name="Group 39">
          <path id="Path_35" data-name="Path 35" d="M277.84,56.47c0-2.95-1.73-5.69-5.29-5.69-3.76,0-5.9,2.54-5.9,6.3,0,3.66,2.14,6.3,5.9,6.3,2.95,0,4.78-1.42,5.08-3.56H275.6c-.31,1.22-1.32,1.93-3.05,1.93-2.54,0-3.76-1.73-3.76-4.58h9.05v-.7Zm-9.05-1.02a3.506,3.506,0,0,1,3.66-2.85,3.125,3.125,0,0,1,3.36,2.85Z" fill="#321e1e"/>
        </g>
      </g>
    </g>
  </g>
</svg>
